<svg xmlns="http://www.w3.org/2000/svg" viewBox="0 0 900 700" fill="none" stroke="#fff" stroke-linecap="round" stroke-linejoin="round">
  <!-- V3 composition retained: four long, readable petioles. -->
  <g stroke-width="1.2" opacity=".9">
    <path d="M524 700C510 582 476 425 438 309"/>
    <path d="M572 700C590 563 634 420 681 332"/>
    <path d="M548 700C572 616 637 555 704 520"/>
    <path d="M493 700C449 618 378 539 324 489"/>
  </g>

  <!-- Rear leaf: V3.2 adds only a slight natural asymmetry to its outline. -->
  <g opacity=".48">
    <path d="M681 332C663 302 647 313 616 359C595 391 561 374 546 338C522 280 558 204 632 137C676 98 735 65 796 31C840 108 866 190 849 253C834 309 800 359 756 375C724 387 703 354 692 326C688 316 684 324 681 332Z" fill="#fff" fill-opacity=".04" stroke-width="1.04"/>
    <path d="M681 332C711 255 754 143 796 31" stroke-width="1.08"/>
    <path d="M696 292C669 279 645 259 623 235M713 249C684 232 659 211 639 186M731 203C702 187 678 168 659 145M750 157C726 143 706 128 690 110M770 111C750 100 733 89 720 78" opacity=".76" stroke-width=".72"/>
    <path d="M697 291C726 283 756 269 783 249M714 248C746 238 777 223 805 203M732 202C763 191 791 177 817 159M751 156C777 146 801 134 822 119" opacity=".68" stroke-width=".7"/>
    <path d="M681 332C655 323 634 333 616 359M692 326C716 326 736 344 756 375" opacity=".62" stroke-width=".7"/>
  </g>

  <!-- Dominant leaf: same footprint, subtly deeper sinus and a more expressive apex. -->
  <g>
    <path d="M438 309C413 270 383 283 338 356C313 396 274 377 239 345C183 294 172 222 199 163C234 88 306 49 381 20C472 59 546 111 573 179C598 241 573 311 529 356C500 385 466 368 452 319C447 307 443 304 438 309Z" fill="#fff" fill-opacity=".04" stroke-width="1.16"/>
    <path d="M438 309C425 232 407 128 381 20" stroke-width="1.16"/>
    <path d="M431 270C392 259 354 239 319 212M424 229C380 215 338 192 301 162M417 184C374 171 333 150 298 123M409 137C370 127 335 112 304 91M399 88C370 81 342 72 319 62" opacity=".82" stroke-width=".76"/>
    <path d="M432 269C470 255 505 233 535 205M425 228C468 211 506 187 538 157M418 183C458 166 495 145 526 118M410 136C447 123 480 107 509 86M400 88C430 79 458 68 482 57" opacity=".78" stroke-width=".74"/>
    <path d="M438 309C405 286 371 300 338 356M452 319C473 286 498 300 529 356" opacity=".72" stroke-width=".78"/>
    <path d="M423 239C394 232 369 218 348 199M421 224C449 214 474 200 496 182M402 102C377 96 354 87 333 76M403 101C430 92 454 81 476 68" opacity=".46" stroke-width=".58"/>
  </g>

  <!-- Lateral leaf: unchanged from V3.1. -->
  <g opacity=".82">
    <path d="M324 489C308 462 290 468 262 512C241 545 205 526 185 486C155 424 189 359 261 312C283 297 308 285 333 274C380 319 414 367 415 416C416 465 389 507 354 523C337 531 330 501 324 489Z" fill="#fff" fill-opacity=".04" stroke-width="1.08"/>
    <path d="M324 489C330 427 333 350 333 274" stroke-width="1.08"/>
    <path d="M327 454C300 444 275 430 252 409M330 416C299 405 273 388 251 368M332 374C303 365 278 351 257 333M333 330C310 325 290 316 272 306" opacity=".76" stroke-width=".72"/>
    <path d="M327 454C354 443 378 429 399 409M330 416C359 405 385 390 407 371M332 374C358 365 381 352 400 337M333 330C354 323 372 315 387 306" opacity=".68" stroke-width=".7"/>
    <path d="M324 489C301 478 280 488 262 512M324 489C339 474 348 486 354 523" opacity=".6" stroke-width=".68"/>
  </g>

  <!-- Foreground leaf: preserved from V3.1, with its established vein hierarchy. -->
  <g>
    <path d="M704 520C680 486 655 494 618 556C595 595 552 582 527 544C489 485 521 411 595 357C671 303 773 281 875 252C930 310 962 382 950 444C938 507 890 561 826 582C774 599 737 558 717 521C712 511 708 515 704 520Z" fill="#fff" fill-opacity=".04" stroke-width="1.18"/>
    <path d="M704 520C749 454 819 339 875 252" stroke-width="1.18"/>
    <path d="M726 485C687 476 650 458 617 432M750 449C706 438 665 418 630 391M777 407C733 396 692 377 657 352M806 365C766 355 730 341 698 325M836 320C804 313 775 304 749 292" opacity=".82" stroke-width=".78"/>
    <path d="M727 484C770 474 810 459 846 438M751 448C797 438 840 421 878 400M778 406C823 395 865 380 901 360M807 364C846 355 883 343 915 328M837 319C868 313 896 306 922 297" opacity=".76" stroke-width=".75"/>
    <path d="M704 520C672 504 642 519 618 556M717 521C749 511 783 535 826 582" opacity=".72" stroke-width=".8"/>
    <path d="M747 454C716 448 687 436 661 419M767 422C799 416 829 406 856 393" opacity=".48" stroke-width=".58"/>
  </g>
</svg>
